<?xml version="1.0" encoding="utf-8"?>
<!-- Generator: Adobe Illustrator 24.1.2, SVG Export Plug-In . SVG Version: 6.00 Build 0)  -->
<svg version="1.1" id="Lager_2_1_" xmlns="http://www.w3.org/2000/svg" xmlns:xlink="http://www.w3.org/1999/xlink" x="0px" y="0px"
	 viewBox="0 0 290 122" style="enable-background:new 0 0 290 122;" xml:space="preserve">
<style type="text/css">
	.st0{fill:#FFFFFF;}
</style>
<g>
	<g>
		<g>
			<path class="st0" d="M86.78,16.82c-18.95-18.95-49.68-18.96-68.65,0C-0.82,35.77-0.82,66.51,18.14,85.46
				c9.46,9.46,21.87,14.2,34.28,14.21v20.14l34.07-34.07c0.09-0.09,0.19-0.19,0.29-0.28C105.74,66.5,105.73,35.77,86.78,16.82z
				 M73.64,75.22c-11.99,10.59-30.37,10.59-42.37,0c-14-12.36-14.5-33.76-1.49-46.76c12.53-12.53,32.84-12.53,45.36,0
				C88.14,41.46,87.64,62.85,73.64,75.22z"/>
			<path class="st0" d="M40.6,40.16c-5.66,6.1-5.66,15.83-0.01,21.94c6.26,6.77,16.83,6.92,23.29,0.46c6.31-6.31,6.31-16.54,0-22.84
				C57.42,33.25,46.87,33.4,40.6,40.16z"/>
		</g>
	</g>
	<g>
		<g>
			<g>
				<path class="st0" d="M127.57,19.77c-4.88,0-8.85,3.97-8.85,8.85v35.35c0,21.79,16.25,36.44,40.42,36.44
					c24.27,0,40.58-14.64,40.58-36.44V28.62c0-4.88-3.97-8.85-8.85-8.85h-0.16c-4.88,0-8.85,3.97-8.85,8.85v33.61
					c0,13.47-8.07,20.89-22.72,20.89c-14.66,0-22.73-7.42-22.73-20.89V28.62C136.41,23.74,132.45,19.77,127.57,19.77z"/>
				<path class="st0" d="M276.24,19.77h-32.49c-21.89,0-36.61,16.17-36.61,40.24c0,24.16,14.71,40.4,36.61,40.4h32.49
					c4.85,0,8.8-3.95,8.8-8.8v-0.16c0-4.85-3.95-8.8-8.8-8.8H245.5c-13.53,0-20.98-8.04-20.98-22.63s7.45-22.63,20.98-22.63h30.74
					c4.85,0,8.8-3.95,8.8-8.8S281.09,19.77,276.24,19.77z"/>
			</g>
		</g>
	</g>
</g>
</svg>
